<?xml version="1.0" encoding="UTF-8" standalone="no"?>
<!-- Created with Inkscape (http://www.inkscape.org/) -->

<svg
   xmlns:dc="http://purl.org/dc/elements/1.1/"
   xmlns:cc="http://creativecommons.org/ns#"
   xmlns:rdf="http://www.w3.org/1999/02/22-rdf-syntax-ns#"
   xmlns:svg="http://www.w3.org/2000/svg"
   xmlns="http://www.w3.org/2000/svg"
   xmlns:sodipodi="http://sodipodi.sourceforge.net/DTD/sodipodi-0.dtd"
   xmlns:inkscape="http://www.inkscape.org/namespaces/inkscape"
   width="65.977211mm"
   height="29.333469mm"
   viewBox="0 0 65.977211 29.333469"
   version="1.1"
   id="svg11618"
   inkscape:version="0.92.3 (2405546, 2018-03-11)"
   sodipodi:docname="cloud3.svg">
  <defs
     id="defs11612" />
  <sodipodi:namedview
     id="base"
     pagecolor="#ffffff"
     bordercolor="#666666"
     borderopacity="1.0"
     inkscape:pageopacity="0.0"
     inkscape:pageshadow="2"
     inkscape:zoom="2.8"
     inkscape:cx="234.95663"
     inkscape:cy="-2.3868152"
     inkscape:document-units="mm"
     inkscape:current-layer="layer1"
     showgrid="false"
     fit-margin-top="0"
     fit-margin-left="0"
     fit-margin-right="0"
     fit-margin-bottom="0"
     inkscape:window-width="1920"
     inkscape:window-height="1001"
     inkscape:window-x="-9"
     inkscape:window-y="-9"
     inkscape:window-maximized="1" />
  <metadata
     id="metadata11615">
    <rdf:RDF>
      <cc:Work
         rdf:about="">
        <dc:format>image/svg+xml</dc:format>
        <dc:type
           rdf:resource="http://purl.org/dc/dcmitype/StillImage" />
        <dc:title></dc:title>
      </cc:Work>
    </rdf:RDF>
  </metadata>
  <g
     inkscape:label="Layer 1"
     inkscape:groupmode="layer"
     id="layer1"
     transform="translate(19.167691,-118.2916)">
    <circle
       style="fill:#f9f9f9;fill-opacity:1;stroke:none;stroke-width:6.01535034;stroke-linecap:round;stroke-linejoin:round;stroke-miterlimit:4;stroke-dasharray:none;stroke-dashoffset:0;stroke-opacity:1"
       id="path10364-20-5"
       cx="87.323746"
       cy="137.10698"
       r="0" />
    <g
       id="g12330">
      <path
         inkscape:connector-curvature="0"
         id="path10364-4-15"
         d="m 13.390595,139.31011 a 15.059045,13.568085 0 0 1 -12.39412395,5.8649 15.059045,13.568085 0 0 1 -11.79347305,-5.13158 12.801077,11.786135 0 0 0 11.954884,7.58164 12.801077,11.786135 0 0 0 12.232713,-8.31496 z"
         style="fill:#999999;fill-opacity:1;stroke:none;stroke-width:9.85164165;stroke-linecap:round;stroke-linejoin:round;stroke-miterlimit:4;stroke-dasharray:none;stroke-dashoffset:0;stroke-opacity:1" />
      <circle
         r="7.5"
         cy="133.91975"
         cx="-11.667691"
         id="path10364-20-9"
         style="fill:#f9f9f9;fill-opacity:1;stroke:none;stroke-width:6.01535034;stroke-linecap:round;stroke-linejoin:round;stroke-miterlimit:4;stroke-dasharray:none;stroke-dashoffset:0;stroke-opacity:1" />
      <path
         inkscape:connector-curvature="0"
         id="path10364-4-25-0-3"
         d="m 36.088165,140.06213 a 8.822917,8.6339283 0 0 1 -7.261572,3.73207 8.822917,8.6339283 0 0 1 -6.90966,-3.26543 7.5000001,7.5000001 0 0 0 7.00423,4.82451 7.5000001,7.5000001 0 0 0 7.167002,-5.29115 z"
         style="fill:#999999;fill-opacity:1;stroke:none;stroke-width:6.01535034;stroke-linecap:round;stroke-linejoin:round;stroke-miterlimit:4;stroke-dasharray:none;stroke-dashoffset:0;stroke-opacity:1" />
      <circle
         r="7.5"
         cy="130.5015"
         cx="39.309521"
         id="path10364-20-9-2"
         style="fill:#f9f9f9;fill-opacity:1;stroke:none;stroke-width:6.01535034;stroke-linecap:round;stroke-linejoin:round;stroke-miterlimit:4;stroke-dasharray:none;stroke-dashoffset:0;stroke-opacity:1" />
      <path
         inkscape:connector-curvature="0"
         id="path10364-4-89-57-7-3"
         d="m 46.430015,128.41643 a 8.822917,8.6339283 0 0 0 -7.261572,-3.73207 8.822917,8.6339283 0 0 0 -6.909657,3.26543 7.5000001,7.5000001 0 0 1 7.004225,-4.82451 7.5000001,7.5000001 0 0 1 7.167004,5.29115 z"
         style="fill:#e6e6e6;fill-opacity:1;stroke:none;stroke-width:6.01535034;stroke-linecap:round;stroke-linejoin:round;stroke-miterlimit:4;stroke-dasharray:none;stroke-dashoffset:0;stroke-opacity:1" />
      <path
         inkscape:connector-curvature="0"
         id="path10364-4-25-8-1"
         d="m 46.363198,132.37949 a 8.822917,8.6339283 0 0 1 -7.261572,3.73207 8.822917,8.6339283 0 0 1 -6.909657,-3.26543 7.5000001,7.5000001 0 0 0 7.004225,4.82451 7.5000001,7.5000001 0 0 0 7.167004,-5.29115 z"
         style="fill:#999999;fill-opacity:1;stroke:none;stroke-width:6.01535034;stroke-linecap:round;stroke-linejoin:round;stroke-miterlimit:4;stroke-dasharray:none;stroke-dashoffset:0;stroke-opacity:1" />
      <ellipse
         ry="1.4523809"
         rx="2.6808035"
         cy="126.24924"
         cx="38.59137"
         id="path10364-20-9-9-55"
         style="fill:#ffffff;fill-opacity:1;stroke:none;stroke-width:1.58260465;stroke-linecap:round;stroke-linejoin:round;stroke-miterlimit:4;stroke-dasharray:none;stroke-dashoffset:0;stroke-opacity:1" />
      <circle
         r="7.5"
         cy="135.0343"
         cx="30.752274"
         id="path10364-20"
         style="fill:#f9f9f9;fill-opacity:1;stroke:none;stroke-width:6.01535034;stroke-linecap:round;stroke-linejoin:round;stroke-miterlimit:4;stroke-dasharray:none;stroke-dashoffset:0;stroke-opacity:1" />
      <path
         inkscape:connector-curvature="0"
         id="path10364-4-25-1"
         d="m 37.723824,137.57655 a 8.822917,8.6339283 0 0 1 -7.261571,3.73207 8.822917,8.6339283 0 0 1 -6.909658,-3.26544 7.5000001,7.5000001 0 0 0 7.004225,4.82451 7.5000001,7.5000001 0 0 0 7.167004,-5.29114 z"
         style="fill:#999999;fill-opacity:1;stroke:none;stroke-width:6.01535034;stroke-linecap:round;stroke-linejoin:round;stroke-miterlimit:4;stroke-dasharray:none;stroke-dashoffset:0;stroke-opacity:1" />
      <path
         inkscape:connector-curvature="0"
         id="path10364-4-25-0"
         d="m 23.612955,140.79759 a 8.822917,8.6339283 0 0 1 -7.261572,3.73207 8.822917,8.6339283 0 0 1 -6.90966,-3.26543 7.5000001,7.5000001 0 0 0 7.00423,4.82451 7.5000001,7.5000001 0 0 0 7.167002,-5.29115 z"
         style="fill:#999999;fill-opacity:1;stroke:none;stroke-width:6.01535034;stroke-linecap:round;stroke-linejoin:round;stroke-miterlimit:4;stroke-dasharray:none;stroke-dashoffset:0;stroke-opacity:1" />
      <path
         inkscape:connector-curvature="0"
         id="path10364-4"
         d="m 27.267803,137.52227 a 8.822917,8.6339283 0 0 1 -7.261571,3.73208 8.822917,8.6339283 0 0 1 -6.909658,-3.26544 7.5000001,7.5000001 0 0 0 7.004228,4.82451 7.5000001,7.5000001 0 0 0 7.167001,-5.29115 z"
         style="fill:#999999;fill-opacity:1;stroke:none;stroke-width:6.01535034;stroke-linecap:round;stroke-linejoin:round;stroke-miterlimit:4;stroke-dasharray:none;stroke-dashoffset:0;stroke-opacity:1" />
      <circle
         r="7.5"
         cy="136.2821"
         cx="9.7257605"
         id="path10364-20-8"
         style="fill:#f9f9f9;fill-opacity:1;stroke:none;stroke-width:6.01535034;stroke-linecap:round;stroke-linejoin:round;stroke-miterlimit:4;stroke-dasharray:none;stroke-dashoffset:0;stroke-opacity:1" />
      <circle
         r="7.5"
         cy="138.26649"
         cx="-1.8025138"
         id="path10364-20-0"
         style="fill:#f9f9f9;fill-opacity:1;stroke:none;stroke-width:6.01535034;stroke-linecap:round;stroke-linejoin:round;stroke-miterlimit:4;stroke-dasharray:none;stroke-dashoffset:0;stroke-opacity:1" />
      <path
         inkscape:connector-curvature="0"
         id="path10364-4-25"
         d="m 5.219207,140.60471 a 8.822917,8.6339283 0 0 1 -7.261572,3.73207 8.822917,8.6339283 0 0 1 -6.909657,-3.26544 7.5000001,7.5000001 0 0 0 7.004225,4.82451 7.5000001,7.5000001 0 0 0 7.167004,-5.29114 z"
         style="fill:#999999;fill-opacity:1;stroke:none;stroke-width:6.01535034;stroke-linecap:round;stroke-linejoin:round;stroke-miterlimit:4;stroke-dasharray:none;stroke-dashoffset:0;stroke-opacity:1" />
      <path
         inkscape:connector-curvature="0"
         id="path10364-4-89"
         d="m 22.647474,125.7209 a 8.822917,8.6339283 0 0 0 -7.261571,-3.73207 8.822917,8.6339283 0 0 0 -6.909657,3.26543 7.5000001,7.5000001 0 0 1 7.004224,-4.82451 7.5000001,7.5000001 0 0 1 7.167004,5.29115 z"
         style="fill:#e6e6e6;fill-opacity:1;stroke:none;stroke-width:6.01535034;stroke-linecap:round;stroke-linejoin:round;stroke-miterlimit:4;stroke-dasharray:none;stroke-dashoffset:0;stroke-opacity:1" />
      <path
         inkscape:connector-curvature="0"
         id="path10364-4-89-2"
         d="m 37.030224,132.68576 a 8.822917,8.6339283 0 0 0 -7.261571,-3.73207 8.822917,8.6339283 0 0 0 -6.909657,3.26544 7.5000001,7.5000001 0 0 1 7.004224,-4.82451 7.5000001,7.5000001 0 0 1 7.167004,5.29114 z"
         style="fill:#e6e6e6;fill-opacity:1;stroke:none;stroke-width:6.01535034;stroke-linecap:round;stroke-linejoin:round;stroke-miterlimit:4;stroke-dasharray:none;stroke-dashoffset:0;stroke-opacity:1" />
      <circle
         r="7.5"
         cy="134.43428"
         cx="20.172256"
         id="path10364-20-9-1"
         style="fill:#f9f9f9;fill-opacity:1;stroke:none;stroke-width:6.01535034;stroke-linecap:round;stroke-linejoin:round;stroke-miterlimit:4;stroke-dasharray:none;stroke-dashoffset:0;stroke-opacity:1" />
      <path
         inkscape:connector-curvature="0"
         id="path10364-4-89-1"
         d="m 9.417633,126.92361 a 8.822917,8.6339283 0 0 0 -7.261572,-3.73207 8.822917,8.6339283 0 0 0 -6.909657,3.26544 7.5000001,7.5000001 0 0 1 7.004225,-4.82451 7.5000001,7.5000001 0 0 1 7.167004,5.29114 z"
         style="fill:#e6e6e6;fill-opacity:1;stroke:none;stroke-width:6.01535034;stroke-linecap:round;stroke-linejoin:round;stroke-miterlimit:4;stroke-dasharray:none;stroke-dashoffset:0;stroke-opacity:1" />
      <path
         inkscape:connector-curvature="0"
         id="path10364-4-89-9"
         d="m 5.709268,136.31146 a 8.822917,8.6339283 0 0 0 -7.261572,-3.73208 8.822917,8.6339283 0 0 0 -6.909657,3.26544 7.5000001,7.5000001 0 0 1 7.004225,-4.82451 7.5000001,7.5000001 0 0 1 7.167004,5.29115 z"
         style="fill:#e6e6e6;fill-opacity:1;stroke:none;stroke-width:6.01535034;stroke-linecap:round;stroke-linejoin:round;stroke-miterlimit:4;stroke-dasharray:none;stroke-dashoffset:0;stroke-opacity:1" />
      <path
         inkscape:connector-curvature="0"
         id="path10364-4-89-6"
         d="m 16.867771,134.27353 a 8.822917,8.6339283 0 0 0 -7.261572,-3.73208 8.822917,8.6339283 0 0 0 -6.909657,3.26544 7.5000001,7.5000001 0 0 1 7.004227,-4.82451 7.5000001,7.5000001 0 0 1 7.167002,5.29115 z"
         style="fill:#e6e6e6;fill-opacity:1;stroke:none;stroke-width:6.01535034;stroke-linecap:round;stroke-linejoin:round;stroke-miterlimit:4;stroke-dasharray:none;stroke-dashoffset:0;stroke-opacity:1" />
      <path
         inkscape:connector-curvature="0"
         id="path10364-4-89-2-1"
         d="m 26.923787,131.73446 a 8.822917,8.6339283 0 0 0 -7.261572,-3.73207 8.822917,8.6339283 0 0 0 -6.909657,3.26544 7.5000001,7.5000001 0 0 1 7.004224,-4.82451 7.5000001,7.5000001 0 0 1 7.167005,5.29114 z"
         style="fill:#e6e6e6;fill-opacity:1;stroke:none;stroke-width:6.01535034;stroke-linecap:round;stroke-linejoin:round;stroke-miterlimit:4;stroke-dasharray:none;stroke-dashoffset:0;stroke-opacity:1" />
      <path
         inkscape:connector-curvature="0"
         id="path10364-4-89-57-8"
         d="m 33.605527,123.58274 a 8.822917,8.6339283 0 0 0 -7.261575,-3.73207 8.822917,8.6339283 0 0 0 -6.909654,3.26544 7.5000001,7.5000001 0 0 1 7.004224,-4.82451 7.5000001,7.5000001 0 0 1 7.167005,5.29114 z"
         style="fill:#e6e6e6;fill-opacity:1;stroke:none;stroke-width:6.01535034;stroke-linecap:round;stroke-linejoin:round;stroke-miterlimit:4;stroke-dasharray:none;stroke-dashoffset:0;stroke-opacity:1" />
      <path
         inkscape:connector-curvature="0"
         id="path10364-4-89-57-7"
         d="m -4.5472,131.83469 a 8.822917,8.6339283 0 0 0 -7.261572,-3.73207 8.822917,8.6339283 0 0 0 -6.909657,3.26543 7.5000001,7.5000001 0 0 1 7.004225,-4.82451 7.5000001,7.5000001 0 0 1 7.167004,5.29115 z"
         style="fill:#e6e6e6;fill-opacity:1;stroke:none;stroke-width:6.01535034;stroke-linecap:round;stroke-linejoin:round;stroke-miterlimit:4;stroke-dasharray:none;stroke-dashoffset:0;stroke-opacity:1" />
      <path
         inkscape:connector-curvature="0"
         id="path10364-4-25-8"
         d="m -4.614017,135.79775 a 8.822917,8.6339283 0 0 1 -7.261572,3.73207 8.822917,8.6339283 0 0 1 -6.909657,-3.26543 7.5000001,7.5000001 0 0 0 7.004225,4.82451 7.5000001,7.5000001 0 0 0 7.167004,-5.29115 z"
         style="fill:#999999;fill-opacity:1;stroke:none;stroke-width:6.01535034;stroke-linecap:round;stroke-linejoin:round;stroke-miterlimit:4;stroke-dasharray:none;stroke-dashoffset:0;stroke-opacity:1" />
      <path
         inkscape:connector-curvature="0"
         id="path10364-4-89-9-7"
         d="m 4.740416,129.59631 a 8.822917,8.6339283 0 0 0 -7.261572,-3.73208 8.822917,8.6339283 0 0 0 -6.9096569,3.26544 7.5000001,7.5000001 0 0 1 7.0042259,-4.82451 7.5000001,7.5000001 0 0 1 7.167003,5.29115 z"
         style="fill:#e6e6e6;fill-opacity:1;stroke:none;stroke-width:6.01535034;stroke-linecap:round;stroke-linejoin:round;stroke-miterlimit:4;stroke-dasharray:none;stroke-dashoffset:0;stroke-opacity:1" />
      <path
         inkscape:connector-curvature="0"
         id="path10364-4-1-4"
         d="m 17.235266,138.63749 a 8.822917,8.6339283 0 0 1 -7.261571,3.73207 8.822917,8.6339283 0 0 1 -6.909658,-3.26543 7.5000001,7.5000001 0 0 0 7.004225,4.82451 7.5000001,7.5000001 0 0 0 7.167004,-5.29115 z"
         style="fill:#999999;fill-opacity:1;stroke:none;stroke-width:6.01535034;stroke-linecap:round;stroke-linejoin:round;stroke-miterlimit:4;stroke-dasharray:none;stroke-dashoffset:0;stroke-opacity:1" />
      <ellipse
         ry="1.4523809"
         rx="2.6808035"
         cy="129.66751"
         cx="-12.385845"
         id="path10364-20-9-9"
         style="fill:#ffffff;fill-opacity:1;stroke:none;stroke-width:1.58260465;stroke-linecap:round;stroke-linejoin:round;stroke-miterlimit:4;stroke-dasharray:none;stroke-dashoffset:0;stroke-opacity:1" />
      <ellipse
         ry="1.4523809"
         rx="2.6808035"
         cy="135.43167"
         cx="-0.19611426"
         id="path10364-20-9-9-5"
         style="fill:#ffffff;fill-opacity:1;stroke:none;stroke-width:1.58260465;stroke-linecap:round;stroke-linejoin:round;stroke-miterlimit:4;stroke-dasharray:none;stroke-dashoffset:0;stroke-opacity:1" />
      <ellipse
         ry="1.4523809"
         rx="2.6808035"
         cy="132.21887"
         cx="9.6312723"
         id="path10364-20-9-9-51"
         style="fill:#ffffff;fill-opacity:1;stroke:none;stroke-width:1.58260465;stroke-linecap:round;stroke-linejoin:round;stroke-miterlimit:4;stroke-dasharray:none;stroke-dashoffset:0;stroke-opacity:1" />
      <ellipse
         ry="1.4523809"
         rx="2.6808035"
         cy="132.12437"
         cx="27.963112"
         id="path10364-20-9-9-1"
         style="fill:#ffffff;fill-opacity:1;stroke:none;stroke-width:1.58260465;stroke-linecap:round;stroke-linejoin:round;stroke-miterlimit:4;stroke-dasharray:none;stroke-dashoffset:0;stroke-opacity:1" />
      <ellipse
         ry="1.4523809"
         rx="2.6808035"
         cy="130.82614"
         cx="18.435005"
         id="path10364-20-9-9-1-6"
         style="fill:#ffffff;fill-opacity:1;stroke:none;stroke-width:1.58260465;stroke-linecap:round;stroke-linejoin:round;stroke-miterlimit:4;stroke-dasharray:none;stroke-dashoffset:0;stroke-opacity:1" />
    </g>
  </g>
</svg>
