<?xml version="1.0" encoding="UTF-8" standalone="no"?>
<!-- Created with Inkscape (http://www.inkscape.org/) -->

<svg
   xmlns:dc="http://purl.org/dc/elements/1.1/"
   xmlns:cc="http://creativecommons.org/ns#"
   xmlns:rdf="http://www.w3.org/1999/02/22-rdf-syntax-ns#"
   xmlns:svg="http://www.w3.org/2000/svg"
   xmlns="http://www.w3.org/2000/svg"
   xmlns:sodipodi="http://sodipodi.sourceforge.net/DTD/sodipodi-0.dtd"
   xmlns:inkscape="http://www.inkscape.org/namespaces/inkscape"
   width="113.99144mm"
   height="29.333473mm"
   viewBox="0 0 113.99144 29.333473"
   version="1.1"
   id="svg8"
   sodipodi:docname="clouds2.svg"
   inkscape:version="0.92.3 (2405546, 2018-03-11)">
  <defs
     id="defs2" />
  <sodipodi:namedview
     id="base"
     pagecolor="#ffffff"
     bordercolor="#666666"
     borderopacity="1.0"
     inkscape:pageopacity="0.0"
     inkscape:pageshadow="2"
     inkscape:zoom="2.8"
     inkscape:cx="278.17232"
     inkscape:cy="73.604096"
     inkscape:document-units="mm"
     inkscape:current-layer="layer1"
     showgrid="false"
     inkscape:window-width="1920"
     inkscape:window-height="1001"
     inkscape:window-x="-9"
     inkscape:window-y="-9"
     inkscape:window-maximized="1"
     fit-margin-top="0"
     fit-margin-left="0"
     fit-margin-right="0"
     fit-margin-bottom="0" />
  <metadata
     id="metadata5">
    <rdf:RDF>
      <cc:Work
         rdf:about="">
        <dc:format>image/svg+xml</dc:format>
        <dc:type
           rdf:resource="http://purl.org/dc/dcmitype/StillImage" />
        <dc:title></dc:title>
      </cc:Work>
    </rdf:RDF>
  </metadata>
  <g
     inkscape:label="Layer 1"
     inkscape:groupmode="layer"
     id="layer1"
     transform="translate(-46.701786,-9.795944)">
    <path
       style="fill:#999999;fill-opacity:1;stroke:none;stroke-width:9.85164165;stroke-linecap:round;stroke-linejoin:round;stroke-miterlimit:4;stroke-dasharray:none;stroke-dashoffset:0;stroke-opacity:1"
       d="M 79.260073,30.81446 A 15.059045,13.568085 0 0 1 66.865948,36.679356 15.059045,13.568085 0 0 1 55.072475,31.547775 12.801077,11.786135 0 0 0 67.027359,39.129418 12.801077,11.786135 0 0 0 79.260073,30.81446 Z"
       id="path10364-4-15"
       inkscape:connector-curvature="0" />
    <circle
       style="fill:#f9f9f9;fill-opacity:1;stroke:none;stroke-width:6.01535034;stroke-linecap:round;stroke-linejoin:round;stroke-miterlimit:4;stroke-dasharray:none;stroke-dashoffset:0;stroke-opacity:1"
       id="path10364-20-9"
       cx="54.201786"
       cy="25.424109"
       r="7.5" />
    <path
       style="fill:#999999;fill-opacity:1;stroke:none;stroke-width:6.01535034;stroke-linecap:round;stroke-linejoin:round;stroke-miterlimit:4;stroke-dasharray:none;stroke-dashoffset:0;stroke-opacity:1"
       d="m 101.95764,31.566479 a 8.822917,8.6339283 0 0 1 -7.261571,3.732073 8.822917,8.6339283 0 0 1 -6.90966,-3.265435 7.5000001,7.5000001 0 0 0 7.00423,4.82451 7.5000001,7.5000001 0 0 0 7.167001,-5.291148 z"
       id="path10364-4-25-0-3"
       inkscape:connector-curvature="0" />
    <circle
       style="fill:#f9f9f9;fill-opacity:1;stroke:none;stroke-width:6.01535034;stroke-linecap:round;stroke-linejoin:round;stroke-miterlimit:4;stroke-dasharray:none;stroke-dashoffset:0;stroke-opacity:1"
       id="path10364-20"
       cx="96.62175"
       cy="26.538645"
       r="7.5" />
    <path
       style="fill:#999999;fill-opacity:1;stroke:none;stroke-width:6.01535034;stroke-linecap:round;stroke-linejoin:round;stroke-miterlimit:4;stroke-dasharray:none;stroke-dashoffset:0;stroke-opacity:1"
       d="m 103.5933,29.080893 a 8.822917,8.6339283 0 0 1 -7.261571,3.732073 8.822917,8.6339283 0 0 1 -6.909657,-3.265435 7.5000001,7.5000001 0 0 0 7.004225,4.82451 7.5000001,7.5000001 0 0 0 7.167003,-5.291148 z"
       id="path10364-4-25-1"
       inkscape:connector-curvature="0" />
    <path
       style="fill:#999999;fill-opacity:1;stroke:none;stroke-width:6.01535034;stroke-linecap:round;stroke-linejoin:round;stroke-miterlimit:4;stroke-dasharray:none;stroke-dashoffset:0;stroke-opacity:1"
       d="m 89.482431,32.301937 a 8.822917,8.6339283 0 0 1 -7.26157,3.732073 8.822917,8.6339283 0 0 1 -6.90966,-3.265435 7.5000001,7.5000001 0 0 0 7.00423,4.82451 7.5000001,7.5000001 0 0 0 7.167,-5.291148 z"
       id="path10364-4-25-0"
       inkscape:connector-curvature="0" />
    <path
       style="fill:#999999;fill-opacity:1;stroke:none;stroke-width:6.01535034;stroke-linecap:round;stroke-linejoin:round;stroke-miterlimit:4;stroke-dasharray:none;stroke-dashoffset:0;stroke-opacity:1"
       d="m 93.137281,29.026622 a 8.8229169,8.6339282 0 0 1 -7.261572,3.732073 8.8229169,8.6339282 0 0 1 -6.909657,-3.265435 7.5,7.5 0 0 0 7.004225,4.82451 7.5,7.5 0 0 0 7.167004,-5.291148 z"
       id="path10364-4"
       inkscape:connector-curvature="0" />
    <circle
       style="fill:#f9f9f9;fill-opacity:1;stroke:none;stroke-width:6.01535034;stroke-linecap:round;stroke-linejoin:round;stroke-miterlimit:4;stroke-dasharray:none;stroke-dashoffset:0;stroke-opacity:1"
       id="path10364-20-8"
       cx="75.595238"
       cy="27.786455"
       r="7.5" />
    <circle
       style="fill:#f9f9f9;fill-opacity:1;stroke:none;stroke-width:6.01535034;stroke-linecap:round;stroke-linejoin:round;stroke-miterlimit:4;stroke-dasharray:none;stroke-dashoffset:0;stroke-opacity:1"
       id="path10364-20-0"
       cx="64.066963"
       cy="29.770834"
       r="7.5" />
    <path
       style="fill:#999999;fill-opacity:1;stroke:none;stroke-width:6.01535034;stroke-linecap:round;stroke-linejoin:round;stroke-miterlimit:4;stroke-dasharray:none;stroke-dashoffset:0;stroke-opacity:1"
       d="m 71.088684,32.109054 a 8.822917,8.6339283 0 0 1 -7.261572,3.732073 8.822917,8.6339283 0 0 1 -6.909657,-3.265435 7.5000001,7.5000001 0 0 0 7.004225,4.82451 7.5000001,7.5000001 0 0 0 7.167004,-5.291148 z"
       id="path10364-4-25"
       inkscape:connector-curvature="0" />
    <path
       style="fill:#999999;fill-opacity:1;stroke:none;stroke-width:9.63768196;stroke-linecap:round;stroke-linejoin:round;stroke-miterlimit:4;stroke-dasharray:none;stroke-dashoffset:0;stroke-opacity:1"
       d="m 154.87431,33.267372 a 22.648293,8.6339283 0 0 1 -18.64034,3.732073 22.648293,8.6339283 0 0 1 -17.73699,-3.265435 19.252386,7.5000001 0 0 0 17.97975,4.82451 19.252386,7.5000001 0 0 0 18.39758,-5.291148 z"
       id="path10364-4-25-0-5"
       inkscape:connector-curvature="0" />
    <circle
       style="fill:#f9f9f9;fill-opacity:1;stroke:none;stroke-width:6.01535034;stroke-linecap:round;stroke-linejoin:round;stroke-miterlimit:4;stroke-dasharray:none;stroke-dashoffset:0;stroke-opacity:1"
       id="path10364-20-7-2"
       cx="115.77547"
       cy="29.279497"
       r="7.5" />
    <path
       style="fill:#e6e6e6;fill-opacity:1;stroke:none;stroke-width:6.01535034;stroke-linecap:round;stroke-linejoin:round;stroke-miterlimit:4;stroke-dasharray:none;stroke-dashoffset:0;stroke-opacity:1"
       d="m 123.09495,26.646499 a 8.822917,8.6339283 0 0 0 -7.26158,-3.732074 8.822917,8.6339283 0 0 0 -6.90965,3.265436 7.5000001,7.5000001 0 0 1 7.00422,-4.824511 7.5000001,7.5000001 0 0 1 7.16701,5.291149 z"
       id="path10364-4-89-64-4"
       inkscape:connector-curvature="0" />
    <path
       style="fill:#999999;fill-opacity:1;stroke:none;stroke-width:6.01535034;stroke-linecap:round;stroke-linejoin:round;stroke-miterlimit:4;stroke-dasharray:none;stroke-dashoffset:0;stroke-opacity:1"
       d="m 123.89676,31.845679 a 8.822917,8.6339283 0 0 1 -7.26158,3.732074 8.822917,8.6339283 0 0 1 -6.90965,-3.265436 7.5000001,7.5000001 0 0 0 7.00422,4.824511 7.5000001,7.5000001 0 0 0 7.16701,-5.291149 z"
       id="path10364-4-4-6"
       inkscape:connector-curvature="0" />
    <circle
       style="fill:#f9f9f9;fill-opacity:1;stroke:none;stroke-width:6.01535034;stroke-linecap:round;stroke-linejoin:round;stroke-miterlimit:4;stroke-dasharray:none;stroke-dashoffset:0;stroke-opacity:1"
       id="path10364-20-4"
       cx="124.46172"
       cy="27.809519"
       r="7.5" />
    <circle
       style="fill:#f9f9f9;fill-opacity:1;stroke:none;stroke-width:6.01535034;stroke-linecap:round;stroke-linejoin:round;stroke-miterlimit:4;stroke-dasharray:none;stroke-dashoffset:0;stroke-opacity:1"
       id="path10364-20-4-4"
       cx="139.37872"
       cy="27.880953"
       r="7.5" />
    <path
       style="fill:#999999;fill-opacity:1;stroke:none;stroke-width:6.01535034;stroke-linecap:round;stroke-linejoin:round;stroke-miterlimit:4;stroke-dasharray:none;stroke-dashoffset:0;stroke-opacity:1"
       d="m 131.70252,30.095988 a 8.822917,8.6339283 0 0 1 -7.26157,3.732074 8.822917,8.6339283 0 0 1 -6.90966,-3.265436 7.5000001,7.5000001 0 0 0 7.00423,4.824511 7.5000001,7.5000001 0 0 0 7.167,-5.291149 z"
       id="path10364-4-4"
       inkscape:connector-curvature="0" />
    <path
       style="fill:#999999;fill-opacity:1;stroke:none;stroke-width:6.01535034;stroke-linecap:round;stroke-linejoin:round;stroke-miterlimit:4;stroke-dasharray:none;stroke-dashoffset:0;stroke-opacity:1"
       d="m 146.44071,30.149067 a 8.822917,8.6339283 0 0 1 -7.26158,3.732073 8.822917,8.6339283 0 0 1 -6.90965,-3.265435 7.5000001,7.5000001 0 0 0 7.00422,4.82451 7.5000001,7.5000001 0 0 0 7.16701,-5.291148 z"
       id="path10364-4-8"
       inkscape:connector-curvature="0" />
    <path
       style="fill:#e6e6e6;fill-opacity:1;stroke:none;stroke-width:6.01535034;stroke-linecap:round;stroke-linejoin:round;stroke-miterlimit:4;stroke-dasharray:none;stroke-dashoffset:0;stroke-opacity:1"
       d="m 88.516951,17.225248 a 8.822917,8.6339283 0 0 0 -7.261572,-3.732073 8.822917,8.6339283 0 0 0 -6.909657,3.265435 7.5000001,7.5000001 0 0 1 7.004225,-4.82451 7.5000001,7.5000001 0 0 1 7.167004,5.291148 z"
       id="path10364-4-89"
       inkscape:connector-curvature="0" />
    <circle
       style="fill:#f9f9f9;fill-opacity:1;stroke:none;stroke-width:6.01535034;stroke-linecap:round;stroke-linejoin:round;stroke-miterlimit:4;stroke-dasharray:none;stroke-dashoffset:0;stroke-opacity:1"
       id="path10364-20-7"
       cx="106.95557"
       cy="29.145864"
       r="7.5" />
    <path
       style="fill:#e6e6e6;fill-opacity:1;stroke:none;stroke-width:6.01535034;stroke-linecap:round;stroke-linejoin:round;stroke-miterlimit:4;stroke-dasharray:none;stroke-dashoffset:0;stroke-opacity:1"
       d="m 102.8997,24.190111 a 8.822917,8.6339283 0 0 0 -7.261571,-3.732073 8.822917,8.6339283 0 0 0 -6.909657,3.265435 7.5000001,7.5000001 0 0 1 7.004225,-4.82451 7.5000001,7.5000001 0 0 1 7.167003,5.291148 z"
       id="path10364-4-89-2"
       inkscape:connector-curvature="0" />
    <circle
       style="fill:#f9f9f9;fill-opacity:1;stroke:none;stroke-width:6.01535034;stroke-linecap:round;stroke-linejoin:round;stroke-miterlimit:4;stroke-dasharray:none;stroke-dashoffset:0;stroke-opacity:1"
       id="path10364-20-9-1"
       cx="86.041733"
       cy="25.938631"
       r="7.5" />
    <path
       style="fill:#e6e6e6;fill-opacity:1;stroke:none;stroke-width:6.01535034;stroke-linecap:round;stroke-linejoin:round;stroke-miterlimit:4;stroke-dasharray:none;stroke-dashoffset:0;stroke-opacity:1"
       d="m 125.80105,18.828865 a 8.822917,8.6339283 0 0 0 -7.26157,-3.732073 8.822917,8.6339283 0 0 0 -6.90966,3.265435 7.5000001,7.5000001 0 0 1 7.00423,-4.82451 7.5000001,7.5000001 0 0 1 7.167,5.291148 z"
       id="path10364-4-89-5"
       inkscape:connector-curvature="0" />
    <path
       style="fill:#e6e6e6;fill-opacity:1;stroke:none;stroke-width:6.01535034;stroke-linecap:round;stroke-linejoin:round;stroke-miterlimit:4;stroke-dasharray:none;stroke-dashoffset:0;stroke-opacity:1"
       d="m 120.31608,15.154993 a 8.822917,8.6339283 0 0 0 -7.26157,-3.732073 8.822917,8.6339283 0 0 0 -6.90966,3.265435 7.5000001,7.5000001 0 0 1 7.00423,-4.82451 7.5000001,7.5000001 0 0 1 7.167,5.291148 z"
       id="path10364-4-89-4"
       inkscape:connector-curvature="0" />
    <path
       style="fill:#e6e6e6;fill-opacity:1;stroke:none;stroke-width:6.01535034;stroke-linecap:round;stroke-linejoin:round;stroke-miterlimit:4;stroke-dasharray:none;stroke-dashoffset:0;stroke-opacity:1"
       d="m 110.56669,18.294326 a 8.822917,8.6339283 0 0 0 -7.26157,-3.732073 8.822917,8.6339283 0 0 0 -6.909662,3.265435 7.5000001,7.5000001 0 0 1 7.004222,-4.82451 7.5000001,7.5000001 0 0 1 7.16701,5.291148 z"
       id="path10364-4-89-57"
       inkscape:connector-curvature="0" />
    <path
       style="fill:#e6e6e6;fill-opacity:1;stroke:none;stroke-width:6.01535034;stroke-linecap:round;stroke-linejoin:round;stroke-miterlimit:4;stroke-dasharray:none;stroke-dashoffset:0;stroke-opacity:1"
       d="m 75.28711,18.427961 a 8.822917,8.6339283 0 0 0 -7.261572,-3.732073 8.822917,8.6339283 0 0 0 -6.909657,3.265435 7.5000001,7.5000001 0 0 1 7.004225,-4.82451 7.5000001,7.5000001 0 0 1 7.167004,5.291148 z"
       id="path10364-4-89-1"
       inkscape:connector-curvature="0" />
    <path
       style="fill:#e6e6e6;fill-opacity:1;stroke:none;stroke-width:6.01535034;stroke-linecap:round;stroke-linejoin:round;stroke-miterlimit:4;stroke-dasharray:none;stroke-dashoffset:0;stroke-opacity:1"
       d="m 71.578745,27.815803 a 8.822917,8.6339283 0 0 0 -7.261572,-3.732073 8.822917,8.6339283 0 0 0 -6.909657,3.265435 7.5000001,7.5000001 0 0 1 7.004225,-4.82451 7.5000001,7.5000001 0 0 1 7.167004,5.291148 z"
       id="path10364-4-89-9"
       inkscape:connector-curvature="0" />
    <path
       style="fill:#e6e6e6;fill-opacity:1;stroke:none;stroke-width:6.01535034;stroke-linecap:round;stroke-linejoin:round;stroke-miterlimit:4;stroke-dasharray:none;stroke-dashoffset:0;stroke-opacity:1"
       d="m 82.737248,25.777873 a 8.822917,8.6339283 0 0 0 -7.261572,-3.732073 8.822917,8.6339283 0 0 0 -6.909657,3.265435 7.5000001,7.5000001 0 0 1 7.004226,-4.82451 7.5000001,7.5000001 0 0 1 7.167003,5.291148 z"
       id="path10364-4-89-6"
       inkscape:connector-curvature="0" />
    <path
       style="fill:#e6e6e6;fill-opacity:1;stroke:none;stroke-width:6.01535034;stroke-linecap:round;stroke-linejoin:round;stroke-miterlimit:4;stroke-dasharray:none;stroke-dashoffset:0;stroke-opacity:1"
       d="m 92.793264,23.238812 a 8.822917,8.6339283 0 0 0 -7.261572,-3.732073 8.822917,8.6339283 0 0 0 -6.909657,3.265435 7.5000001,7.5000001 0 0 1 7.004225,-4.82451 7.5000001,7.5000001 0 0 1 7.167004,5.291148 z"
       id="path10364-4-89-2-1"
       inkscape:connector-curvature="0" />
    <path
       style="fill:#e6e6e6;fill-opacity:1;stroke:none;stroke-width:6.01535034;stroke-linecap:round;stroke-linejoin:round;stroke-miterlimit:4;stroke-dasharray:none;stroke-dashoffset:0;stroke-opacity:1"
       d="m 131.53636,25.523439 a 8.822917,8.6339283 0 0 0 -7.26157,-3.732073 8.822917,8.6339283 0 0 0 -6.90966,3.265435 7.5000001,7.5000001 0 0 1 7.00423,-4.82451 7.5000001,7.5000001 0 0 1 7.167,5.291148 z"
       id="path10364-4-89-64"
       inkscape:connector-curvature="0" />
    <path
       style="fill:#e6e6e6;fill-opacity:1;stroke:none;stroke-width:8.7352829;stroke-linecap:round;stroke-linejoin:round;stroke-miterlimit:4;stroke-dasharray:none;stroke-dashoffset:0;stroke-opacity:1"
       d="m 155.44127,23.912461 a 14.470726,11.101007 0 0 0 -11.90993,-4.798484 14.470726,11.101007 0 0 0 -11.33274,4.198508 12.300971,9.6430673 0 0 1 11.48784,-6.203077 12.300971,9.6430673 0 0 1 11.75483,6.803053 z"
       id="path10364-4-89-27"
       inkscape:connector-curvature="0" />
    <path
       style="fill:#e6e6e6;fill-opacity:1;stroke:none;stroke-width:6.01535034;stroke-linecap:round;stroke-linejoin:round;stroke-miterlimit:4;stroke-dasharray:none;stroke-dashoffset:0;stroke-opacity:1"
       d="m 99.475002,15.087092 a 8.822917,8.6339283 0 0 0 -7.261572,-3.732073 8.822917,8.6339283 0 0 0 -6.909657,3.265435 7.5000001,7.5000001 0 0 1 7.004226,-4.82451 7.5000001,7.5000001 0 0 1 7.167003,5.291148 z"
       id="path10364-4-89-57-8"
       inkscape:connector-curvature="0" />
    <path
       style="fill:#e6e6e6;fill-opacity:1;stroke:none;stroke-width:6.01535034;stroke-linecap:round;stroke-linejoin:round;stroke-miterlimit:4;stroke-dasharray:none;stroke-dashoffset:0;stroke-opacity:1"
       d="m 114.36381,27.034548 a 8.822917,8.6339283 0 0 0 -7.26157,-3.732073 8.822917,8.6339283 0 0 0 -6.90965,3.265435 7.5000001,7.5000001 0 0 1 7.00422,-4.82451 7.5000001,7.5000001 0 0 1 7.167,5.291148 z"
       id="path10364-4-89-57-6"
       inkscape:connector-curvature="0" />
    <path
       style="fill:#e6e6e6;fill-opacity:1;stroke:none;stroke-width:6.01535034;stroke-linecap:round;stroke-linejoin:round;stroke-miterlimit:4;stroke-dasharray:none;stroke-dashoffset:0;stroke-opacity:1"
       d="m 134.48731,15.621631 a 8.822917,8.6339283 0 0 0 -7.26157,-3.732073 8.822917,8.6339283 0 0 0 -6.90966,3.265435 7.5000001,7.5000001 0 0 1 7.00423,-4.82451 7.5000001,7.5000001 0 0 1 7.167,5.291148 z"
       id="path10364-4-89-57-3"
       inkscape:connector-curvature="0" />
    <path
       style="fill:#e6e6e6;fill-opacity:1;stroke:none;stroke-width:6.01535034;stroke-linecap:round;stroke-linejoin:round;stroke-miterlimit:4;stroke-dasharray:none;stroke-dashoffset:0;stroke-opacity:1"
       d="m 61.322277,23.339038 a 8.822917,8.6339283 0 0 0 -7.261572,-3.732073 8.822917,8.6339283 0 0 0 -6.909657,3.265435 7.5000001,7.5000001 0 0 1 7.004225,-4.82451 7.5000001,7.5000001 0 0 1 7.167004,5.291148 z"
       id="path10364-4-89-57-7"
       inkscape:connector-curvature="0" />
    <path
       style="fill:#999999;fill-opacity:1;stroke:none;stroke-width:6.01535034;stroke-linecap:round;stroke-linejoin:round;stroke-miterlimit:4;stroke-dasharray:none;stroke-dashoffset:0;stroke-opacity:1"
       d="m 61.25546,27.302098 a 8.822917,8.6339283 0 0 1 -7.261572,3.732073 8.822917,8.6339283 0 0 1 -6.909657,-3.265435 7.5000001,7.5000001 0 0 0 7.004225,4.82451 7.5000001,7.5000001 0 0 0 7.167004,-5.291148 z"
       id="path10364-4-25-8"
       inkscape:connector-curvature="0" />
    <path
       style="fill:#e6e6e6;fill-opacity:1;stroke:none;stroke-width:6.01535034;stroke-linecap:round;stroke-linejoin:round;stroke-miterlimit:4;stroke-dasharray:none;stroke-dashoffset:0;stroke-opacity:1"
       d="m 70.609893,21.100656 a 8.822917,8.6339283 0 0 0 -7.261572,-3.732074 8.822917,8.6339283 0 0 0 -6.909657,3.265436 7.5000001,7.5000001 0 0 1 7.004226,-4.824511 7.5000001,7.5000001 0 0 1 7.167003,5.291149 z"
       id="path10364-4-89-9-7"
       inkscape:connector-curvature="0" />
    <path
       style="fill:#e6e6e6;fill-opacity:1;stroke:none;stroke-width:6.01535034;stroke-linecap:round;stroke-linejoin:round;stroke-miterlimit:4;stroke-dasharray:none;stroke-dashoffset:0;stroke-opacity:1"
       d="m 119.92112,21.635195 a 8.822917,8.6339283 0 0 0 -7.26157,-3.732073 8.822917,8.6339283 0 0 0 -6.90966,3.265435 7.5000001,7.5000001 0 0 1 7.00423,-4.82451 7.5000001,7.5000001 0 0 1 7.167,5.291148 z"
       id="path10364-4-89-9-73"
       inkscape:connector-curvature="0" />
    <path
       style="fill:#e6e6e6;fill-opacity:1;stroke:none;stroke-width:6.01535034;stroke-linecap:round;stroke-linejoin:round;stroke-miterlimit:4;stroke-dasharray:none;stroke-dashoffset:0;stroke-opacity:1"
       d="m 142.63903,18.69523 a 8.822917,8.6339283 0 0 0 -7.26157,-3.732073 8.822917,8.6339283 0 0 0 -6.90966,3.265435 7.5000001,7.5000001 0 0 1 7.00423,-4.82451 7.5000001,7.5000001 0 0 1 7.167,5.291148 z"
       id="path10364-4-89-9-1"
       inkscape:connector-curvature="0" />
    <path
       style="fill:#999999;fill-opacity:1;stroke:none;stroke-width:6.01535034;stroke-linecap:round;stroke-linejoin:round;stroke-miterlimit:4;stroke-dasharray:none;stroke-dashoffset:0;stroke-opacity:1"
       d="m 114.12758,31.486002 a 8.822917,8.6339283 0 0 1 -7.26157,3.732074 8.822917,8.6339283 0 0 1 -6.90966,-3.265436 7.5000001,7.5000001 0 0 0 7.00423,4.824511 7.5000001,7.5000001 0 0 0 7.167,-5.291149 z"
       id="path10364-4-4-5"
       inkscape:connector-curvature="0" />
    <ellipse
       style="fill:#f9f9f9;fill-opacity:1;stroke:none;stroke-width:6.01535034;stroke-linecap:round;stroke-linejoin:round;stroke-miterlimit:4;stroke-dasharray:none;stroke-dashoffset:0;stroke-opacity:1"
       id="path10364-20-5"
       cx="153.19322"
       cy="28.611326"
       r="7.5" />
    <path
       style="fill:#999999;fill-opacity:1;stroke:none;stroke-width:6.01535034;stroke-linecap:round;stroke-linejoin:round;stroke-miterlimit:4;stroke-dasharray:none;stroke-dashoffset:0;stroke-opacity:1"
       d="m 160.49382,30.863605 a 8.822917,8.6339283 0 0 1 -7.26157,3.732074 8.822917,8.6339283 0 0 1 -6.90965,-3.265436 7.5000001,7.5000001 0 0 0 7.00422,4.824511 7.5000001,7.5000001 0 0 0 7.167,-5.291149 z"
       id="path10364-4-4-53"
       inkscape:connector-curvature="0" />
    <path
       style="fill:#e6e6e6;fill-opacity:1;stroke:none;stroke-width:6.01535034;stroke-linecap:round;stroke-linejoin:round;stroke-miterlimit:4;stroke-dasharray:none;stroke-dashoffset:0;stroke-opacity:1"
       d="m 160.6324,26.170859 a 8.822917,8.6339283 0 0 0 -7.26157,-3.732073 8.822917,8.6339283 0 0 0 -6.90966,3.265435 7.5000001,7.5000001 0 0 1 7.00422,-4.82451 7.5000001,7.5000001 0 0 1 7.16701,5.291148 z"
       id="path10364-4-89-9-1-2"
       inkscape:connector-curvature="0" />
    <path
       style="fill:#999999;fill-opacity:1;stroke:none;stroke-width:6.01535034;stroke-linecap:round;stroke-linejoin:round;stroke-miterlimit:4;stroke-dasharray:none;stroke-dashoffset:0;stroke-opacity:1"
       d="m 83.104743,30.141837 a 8.822917,8.6339283 0 0 1 -7.261572,3.732073 8.822917,8.6339283 0 0 1 -6.909657,-3.265435 7.5000001,7.5000001 0 0 0 7.004225,4.82451 7.5000001,7.5000001 0 0 0 7.167004,-5.291148 z"
       id="path10364-4-1-4"
       inkscape:connector-curvature="0" />
    <ellipse
       style="fill:#ffffff;fill-opacity:1;stroke:none;stroke-width:1.58260465;stroke-linecap:round;stroke-linejoin:round;stroke-miterlimit:4;stroke-dasharray:none;stroke-dashoffset:0;stroke-opacity:1"
       id="path10364-20-9-9"
       cx="53.483631"
       cy="21.171865"
       rx="2.6808035"
       ry="1.4523809" />
    <ellipse
       style="fill:#ffffff;fill-opacity:1;stroke:none;stroke-width:1.58260465;stroke-linecap:round;stroke-linejoin:round;stroke-miterlimit:4;stroke-dasharray:none;stroke-dashoffset:0;stroke-opacity:1"
       id="path10364-20-9-9-5"
       cx="65.673363"
       cy="26.93601"
       rx="2.6808035"
       ry="1.4523809" />
    <ellipse
       style="fill:#ffffff;fill-opacity:1;stroke:none;stroke-width:1.58260465;stroke-linecap:round;stroke-linejoin:round;stroke-miterlimit:4;stroke-dasharray:none;stroke-dashoffset:0;stroke-opacity:1"
       id="path10364-20-9-9-51"
       cx="75.500748"
       cy="23.723215"
       rx="2.6808035"
       ry="1.4523809" />
    <ellipse
       style="fill:#ffffff;fill-opacity:1;stroke:none;stroke-width:1.58260465;stroke-linecap:round;stroke-linejoin:round;stroke-miterlimit:4;stroke-dasharray:none;stroke-dashoffset:0;stroke-opacity:1"
       id="path10364-20-9-9-1"
       cx="93.832588"
       cy="23.628721"
       rx="2.6808035"
       ry="1.4523809" />
    <ellipse
       style="fill:#ffffff;fill-opacity:1;stroke:none;stroke-width:1.58260465;stroke-linecap:round;stroke-linejoin:round;stroke-miterlimit:4;stroke-dasharray:none;stroke-dashoffset:0;stroke-opacity:1"
       id="path10364-20-9-9-6"
       cx="108.47916"
       cy="27.030504"
       rx="2.6808035"
       ry="1.4523809" />
    <ellipse
       style="fill:#ffffff;fill-opacity:1;stroke:none;stroke-width:1.58260465;stroke-linecap:round;stroke-linejoin:round;stroke-miterlimit:4;stroke-dasharray:none;stroke-dashoffset:0;stroke-opacity:1"
       id="path10364-20-9-9-8"
       cx="122.65327"
       cy="25.046129"
       rx="2.6808035"
       ry="1.4523809" />
    <ellipse
       style="fill:#ffffff;fill-opacity:1;stroke:none;stroke-width:1.58260465;stroke-linecap:round;stroke-linejoin:round;stroke-miterlimit:4;stroke-dasharray:none;stroke-dashoffset:0;stroke-opacity:1"
       id="path10364-20-9-9-53"
       cx="151.28497"
       cy="25.424109"
       rx="2.6808035"
       ry="1.4523809" />
    <path
       style="fill:#e6e6e6;fill-opacity:1;stroke:none;stroke-width:6.01535034;stroke-linecap:round;stroke-linejoin:round;stroke-miterlimit:4;stroke-dasharray:none;stroke-dashoffset:0;stroke-opacity:1"
       d="m 146.46117,25.704221 a 8.822917,8.6339283 0 0 0 -7.26158,-3.732073 8.822917,8.6339283 0 0 0 -6.90965,3.265435 7.5000001,7.5000001 0 0 1 7.00422,-4.82451 7.5000001,7.5000001 0 0 1 7.16701,5.291148 z"
       id="path10364-4-89-5-9"
       inkscape:connector-curvature="0" />
    <ellipse
       style="fill:#ffffff;fill-opacity:1;stroke:none;stroke-width:1.58260465;stroke-linecap:round;stroke-linejoin:round;stroke-miterlimit:4;stroke-dasharray:none;stroke-dashoffset:0;stroke-opacity:1"
       id="path10364-20-9-9-8-1"
       cx="138.2448"
       cy="24.47917"
       rx="2.6808035"
       ry="1.4523809" />
    <ellipse
       style="fill:#ffffff;fill-opacity:1;stroke:none;stroke-width:1.58260465;stroke-linecap:round;stroke-linejoin:round;stroke-miterlimit:4;stroke-dasharray:none;stroke-dashoffset:0;stroke-opacity:1"
       id="path10364-20-9-9-1-6"
       cx="84.304482"
       cy="22.330492"
       rx="2.6808035"
       ry="1.4523809" />
  </g>
</svg>
