<?xml version="1.0" encoding="UTF-8" standalone="no"?>
<!-- Created with Inkscape (http://www.inkscape.org/) -->

<svg
   xmlns:dc="http://purl.org/dc/elements/1.1/"
   xmlns:cc="http://creativecommons.org/ns#"
   xmlns:rdf="http://www.w3.org/1999/02/22-rdf-syntax-ns#"
   xmlns:svg="http://www.w3.org/2000/svg"
   xmlns="http://www.w3.org/2000/svg"
   xmlns:sodipodi="http://sodipodi.sourceforge.net/DTD/sodipodi-0.dtd"
   xmlns:inkscape="http://www.inkscape.org/namespaces/inkscape"
   width="55.868671mm"
   height="28.228041mm"
   viewBox="0 0 55.868671 28.228041"
   version="1.1"
   id="svg12400"
   inkscape:version="0.92.3 (2405546, 2018-03-11)"
   sodipodi:docname="clouds3.svg">
  <defs
     id="defs12394" />
  <sodipodi:namedview
     id="base"
     pagecolor="#ffffff"
     bordercolor="#666666"
     borderopacity="1.0"
     inkscape:pageopacity="0.0"
     inkscape:pageshadow="2"
     inkscape:zoom="3.959798"
     inkscape:cx="35.314231"
     inkscape:cy="71.159436"
     inkscape:document-units="mm"
     inkscape:current-layer="layer1"
     showgrid="false"
     inkscape:window-width="1920"
     inkscape:window-height="1001"
     inkscape:window-x="-9"
     inkscape:window-y="-9"
     inkscape:window-maximized="1"
     fit-margin-top="0"
     fit-margin-left="0"
     fit-margin-right="0"
     fit-margin-bottom="0" />
  <metadata
     id="metadata12397">
    <rdf:RDF>
      <cc:Work
         rdf:about="">
        <dc:format>image/svg+xml</dc:format>
        <dc:type
           rdf:resource="http://purl.org/dc/dcmitype/StillImage" />
        <dc:title></dc:title>
      </cc:Work>
    </rdf:RDF>
  </metadata>
  <g
     inkscape:label="Layer 1"
     inkscape:groupmode="layer"
     id="layer1"
     transform="translate(-38.613094,-141.94519)">
    <g
       id="g13081">
      <path
         inkscape:connector-curvature="0"
         id="path10364-4-25-0-5"
         d="m 88.395963,164.88208 a 22.648293,8.6339283 0 0 1 -18.64034,3.73208 22.648293,8.6339283 0 0 1 -17.73699,-3.26544 19.252386,7.5000001 0 0 0 17.97975,4.82451 19.252386,7.5000001 0 0 0 18.39758,-5.29115 z"
         style="fill:#999999;fill-opacity:1;stroke:none;stroke-width:9.63768196;stroke-linecap:round;stroke-linejoin:round;stroke-miterlimit:4;stroke-dasharray:none;stroke-dashoffset:0;stroke-opacity:1" />
      <path
         inkscape:connector-curvature="0"
         id="path10364-4-89-5"
         d="m 59.322703,150.44357 a 8.822917,8.6339283 0 0 0 -7.26157,-3.73207 8.822917,8.6339283 0 0 0 -6.90966,3.26544 7.5000001,7.5000001 0 0 1 7.00423,-4.82451 7.5000001,7.5000001 0 0 1 7.167,5.29114 z"
         style="fill:#e6e6e6;fill-opacity:1;stroke:none;stroke-width:6.01535034;stroke-linecap:round;stroke-linejoin:round;stroke-miterlimit:4;stroke-dasharray:none;stroke-dashoffset:0;stroke-opacity:1" />
      <circle
         r="7.5"
         cy="155.44792"
         cx="46.113094"
         id="path10364-20-4-5"
         style="fill:#f9f9f9;fill-opacity:1;stroke:none;stroke-width:6.01535034;stroke-linecap:round;stroke-linejoin:round;stroke-miterlimit:4;stroke-dasharray:none;stroke-dashoffset:0;stroke-opacity:1" />
      <path
         inkscape:connector-curvature="0"
         id="path10364-4-4-6-7"
         d="m 53.125165,157.54014 a 8.822917,8.6339283 0 0 1 -7.26158,3.73207 8.822917,8.6339283 0 0 1 -6.90965,-3.26543 7.5000001,7.5000001 0 0 0 7.00422,4.82451 7.5000001,7.5000001 0 0 0 7.16701,-5.29115 z"
         style="fill:#999999;fill-opacity:1;stroke:none;stroke-width:6.01535034;stroke-linecap:round;stroke-linejoin:round;stroke-miterlimit:4;stroke-dasharray:none;stroke-dashoffset:0;stroke-opacity:1" />
      <circle
         r="7.5"
         cy="160.89421"
         cx="49.297119"
         id="path10364-20-7-2"
         style="fill:#f9f9f9;fill-opacity:1;stroke:none;stroke-width:6.01535034;stroke-linecap:round;stroke-linejoin:round;stroke-miterlimit:4;stroke-dasharray:none;stroke-dashoffset:0;stroke-opacity:1" />
      <path
         inkscape:connector-curvature="0"
         id="path10364-4-89-64-4"
         d="m 56.616603,158.26121 a 8.822917,8.6339283 0 0 0 -7.26158,-3.73208 8.822917,8.6339283 0 0 0 -6.90965,3.26544 7.5000001,7.5000001 0 0 1 7.00422,-4.82451 7.5000001,7.5000001 0 0 1 7.16701,5.29115 z"
         style="fill:#e6e6e6;fill-opacity:1;stroke:none;stroke-width:6.01535034;stroke-linecap:round;stroke-linejoin:round;stroke-miterlimit:4;stroke-dasharray:none;stroke-dashoffset:0;stroke-opacity:1" />
      <path
         inkscape:connector-curvature="0"
         id="path10364-4-4-6"
         d="m 56.566491,163.14301 a 8.822917,8.6339283 0 0 1 -7.26158,3.73207 8.822917,8.6339283 0 0 1 -6.90965,-3.26543 7.5000001,7.5000001 0 0 0 7.00422,4.82451 7.5000001,7.5000001 0 0 0 7.16701,-5.29115 z"
         style="fill:#999999;fill-opacity:1;stroke:none;stroke-width:6.01535034;stroke-linecap:round;stroke-linejoin:round;stroke-miterlimit:4;stroke-dasharray:none;stroke-dashoffset:0;stroke-opacity:1" />
      <circle
         r="7.5"
         cy="159.42422"
         cx="57.983376"
         id="path10364-20-4"
         style="fill:#f9f9f9;fill-opacity:1;stroke:none;stroke-width:6.01535034;stroke-linecap:round;stroke-linejoin:round;stroke-miterlimit:4;stroke-dasharray:none;stroke-dashoffset:0;stroke-opacity:1" />
      <circle
         r="7.5"
         cy="159.49567"
         cx="72.900375"
         id="path10364-20-4-4"
         style="fill:#f9f9f9;fill-opacity:1;stroke:none;stroke-width:6.01535034;stroke-linecap:round;stroke-linejoin:round;stroke-miterlimit:4;stroke-dasharray:none;stroke-dashoffset:0;stroke-opacity:1" />
      <path
         inkscape:connector-curvature="0"
         id="path10364-4-4"
         d="m 65.224173,161.7107 a 8.822917,8.6339283 0 0 1 -7.26157,3.73207 8.822917,8.6339283 0 0 1 -6.90966,-3.26543 7.5000001,7.5000001 0 0 0 7.00423,4.82451 7.5000001,7.5000001 0 0 0 7.167,-5.29115 z"
         style="fill:#999999;fill-opacity:1;stroke:none;stroke-width:6.01535034;stroke-linecap:round;stroke-linejoin:round;stroke-miterlimit:4;stroke-dasharray:none;stroke-dashoffset:0;stroke-opacity:1" />
      <path
         inkscape:connector-curvature="0"
         id="path10364-4-8"
         d="m 79.962364,161.76378 a 8.822917,8.6339283 0 0 1 -7.261579,3.73207 8.822917,8.6339283 0 0 1 -6.909652,-3.26544 7.5000001,7.5000001 0 0 0 7.004222,4.82451 7.5000001,7.5000001 0 0 0 7.167009,-5.29114 z"
         style="fill:#999999;fill-opacity:1;stroke:none;stroke-width:6.01535034;stroke-linecap:round;stroke-linejoin:round;stroke-miterlimit:4;stroke-dasharray:none;stroke-dashoffset:0;stroke-opacity:1" />
      <path
         inkscape:connector-curvature="0"
         id="path10364-4-89-64"
         d="m 65.058013,157.13815 a 8.822917,8.6339283 0 0 0 -7.26157,-3.73207 8.822917,8.6339283 0 0 0 -6.90966,3.26543 7.5000001,7.5000001 0 0 1 7.00423,-4.82451 7.5000001,7.5000001 0 0 1 7.167,5.29115 z"
         style="fill:#e6e6e6;fill-opacity:1;stroke:none;stroke-width:6.01535034;stroke-linecap:round;stroke-linejoin:round;stroke-miterlimit:4;stroke-dasharray:none;stroke-dashoffset:0;stroke-opacity:1" />
      <path
         inkscape:connector-curvature="0"
         id="path10364-4-89-27"
         d="m 88.962923,155.52717 a 14.470726,11.101007 0 0 0 -11.90993,-4.79848 14.470726,11.101007 0 0 0 -11.33274,4.1985 12.300971,9.6430674 0 0 1 11.487841,-6.20307 12.300971,9.6430674 0 0 1 11.754829,6.80305 z"
         style="fill:#e6e6e6;fill-opacity:1;stroke:none;stroke-width:8.7352829;stroke-linecap:round;stroke-linejoin:round;stroke-miterlimit:4;stroke-dasharray:none;stroke-dashoffset:0;stroke-opacity:1" />
      <path
         inkscape:connector-curvature="0"
         id="path10364-4-89-57-3"
         d="m 68.008963,147.23634 a 8.822917,8.6339283 0 0 0 -7.26157,-3.73207 8.822917,8.6339283 0 0 0 -6.90966,3.26543 7.5000001,7.5000001 0 0 1 7.00423,-4.82451 7.5000001,7.5000001 0 0 1 7.167,5.29115 z"
         style="fill:#e6e6e6;fill-opacity:1;stroke:none;stroke-width:6.01535034;stroke-linecap:round;stroke-linejoin:round;stroke-miterlimit:4;stroke-dasharray:none;stroke-dashoffset:0;stroke-opacity:1" />
      <path
         inkscape:connector-curvature="0"
         id="path10364-4-89-9-73"
         d="m 53.208912,153.30001 a 8.822917,8.6339283 0 0 0 -7.26157,-3.73207 8.822917,8.6339283 0 0 0 -6.90966,3.26544 7.5000001,7.5000001 0 0 1 7.00423,-4.82451 7.5000001,7.5000001 0 0 1 7.167,5.29114 z"
         style="fill:#e6e6e6;fill-opacity:1;stroke:none;stroke-width:6.01535034;stroke-linecap:round;stroke-linejoin:round;stroke-miterlimit:4;stroke-dasharray:none;stroke-dashoffset:0;stroke-opacity:1" />
      <path
         inkscape:connector-curvature="0"
         id="path10364-4-89-9-1"
         d="m 76.160683,150.30994 a 8.822917,8.6339283 0 0 0 -7.261569,-3.73207 8.822917,8.6339283 0 0 0 -6.909661,3.26543 7.5000001,7.5000001 0 0 1 7.004231,-4.82451 7.5000001,7.5000001 0 0 1 7.166999,5.29115 z"
         style="fill:#e6e6e6;fill-opacity:1;stroke:none;stroke-width:6.01535034;stroke-linecap:round;stroke-linejoin:round;stroke-miterlimit:4;stroke-dasharray:none;stroke-dashoffset:0;stroke-opacity:1" />
      <circle
         r="0"
         cy="160.22603"
         cx="86.714874"
         id="path10364-20-5"
         style="fill:#f9f9f9;fill-opacity:1;stroke:none;stroke-width:6.01535034;stroke-linecap:round;stroke-linejoin:round;stroke-miterlimit:4;stroke-dasharray:none;stroke-dashoffset:0;stroke-opacity:1" />
      <circle
         r="7.5"
         cy="160.07812"
         cx="86.981766"
         id="path10364-20-4-4-2"
         style="fill:#f9f9f9;fill-opacity:1;stroke:none;stroke-width:6.01535034;stroke-linecap:round;stroke-linejoin:round;stroke-miterlimit:4;stroke-dasharray:none;stroke-dashoffset:0;stroke-opacity:1" />
      <path
         inkscape:connector-curvature="0"
         id="path10364-4-4-53"
         d="m 94.015472,162.47831 a 8.822917,8.6339283 0 0 1 -7.261569,3.73208 8.822917,8.6339283 0 0 1 -6.909649,-3.26544 7.5000001,7.5000001 0 0 0 7.004219,4.82451 7.5000001,7.5000001 0 0 0 7.166999,-5.29115 z"
         style="fill:#999999;fill-opacity:1;stroke:none;stroke-width:6.01535034;stroke-linecap:round;stroke-linejoin:round;stroke-miterlimit:4;stroke-dasharray:none;stroke-dashoffset:0;stroke-opacity:1" />
      <path
         inkscape:connector-curvature="0"
         id="path10364-4-89-9-1-2"
         d="m 94.154053,157.78557 a 8.822917,8.6339283 0 0 0 -7.261569,-3.73207 8.822917,8.6339283 0 0 0 -6.90966,3.26543 7.5000001,7.5000001 0 0 1 7.00422,-4.82451 7.5000001,7.5000001 0 0 1 7.167009,5.29115 z"
         style="fill:#e6e6e6;fill-opacity:1;stroke:none;stroke-width:6.01535034;stroke-linecap:round;stroke-linejoin:round;stroke-miterlimit:4;stroke-dasharray:none;stroke-dashoffset:0;stroke-opacity:1" />
      <ellipse
         ry="1.4523809"
         rx="2.6808035"
         cy="157.65303"
         cx="46.914497"
         id="path10364-20-9-9-6"
         style="fill:#ffffff;fill-opacity:1;stroke:none;stroke-width:1.58260465;stroke-linecap:round;stroke-linejoin:round;stroke-miterlimit:4;stroke-dasharray:none;stroke-dashoffset:0;stroke-opacity:1" />
      <ellipse
         ry="1.4523809"
         rx="2.6808035"
         cy="156.66084"
         cx="56.174919"
         id="path10364-20-9-9-8"
         style="fill:#ffffff;fill-opacity:1;stroke:none;stroke-width:1.58260465;stroke-linecap:round;stroke-linejoin:round;stroke-miterlimit:4;stroke-dasharray:none;stroke-dashoffset:0;stroke-opacity:1" />
      <ellipse
         ry="1.4523809"
         rx="2.6808035"
         cy="157.03882"
         cx="84.806625"
         id="path10364-20-9-9-53"
         style="fill:#ffffff;fill-opacity:1;stroke:none;stroke-width:1.58260465;stroke-linecap:round;stroke-linejoin:round;stroke-miterlimit:4;stroke-dasharray:none;stroke-dashoffset:0;stroke-opacity:1" />
      <path
         inkscape:connector-curvature="0"
         id="path10364-4-89-5-9"
         d="m 79.982824,157.31893 a 8.822917,8.6339283 0 0 0 -7.261582,-3.73207 8.822917,8.6339283 0 0 0 -6.909649,3.26543 7.5000001,7.5000001 0 0 1 7.004219,-4.82451 7.5000001,7.5000001 0 0 1 7.167012,5.29115 z"
         style="fill:#e6e6e6;fill-opacity:1;stroke:none;stroke-width:6.01535034;stroke-linecap:round;stroke-linejoin:round;stroke-miterlimit:4;stroke-dasharray:none;stroke-dashoffset:0;stroke-opacity:1" />
      <ellipse
         ry="1.4523809"
         rx="2.6808035"
         cy="156.09387"
         cx="71.766449"
         id="path10364-20-9-9-8-1"
         style="fill:#ffffff;fill-opacity:1;stroke:none;stroke-width:1.58260465;stroke-linecap:round;stroke-linejoin:round;stroke-miterlimit:4;stroke-dasharray:none;stroke-dashoffset:0;stroke-opacity:1" />
      <ellipse
         ry="1.4523809"
         rx="2.6808035"
         cy="151.48845"
         cx="44.734238"
         id="path10364-20-9-9-8-3"
         style="fill:#ffffff;fill-opacity:1;stroke:none;stroke-width:1.58260465;stroke-linecap:round;stroke-linejoin:round;stroke-miterlimit:4;stroke-dasharray:none;stroke-dashoffset:0;stroke-opacity:1" />
    </g>
  </g>
</svg>
