<?xml version="1.0" encoding="UTF-8" standalone="no"?>
<!-- Created with Inkscape (http://www.inkscape.org/) -->

<svg
   xmlns:dc="http://purl.org/dc/elements/1.1/"
   xmlns:cc="http://creativecommons.org/ns#"
   xmlns:rdf="http://www.w3.org/1999/02/22-rdf-syntax-ns#"
   xmlns:svg="http://www.w3.org/2000/svg"
   xmlns="http://www.w3.org/2000/svg"
   xmlns:sodipodi="http://sodipodi.sourceforge.net/DTD/sodipodi-0.dtd"
   xmlns:inkscape="http://www.inkscape.org/namespaces/inkscape"
   width="164.90979mm"
   height="298.28293mm"
   viewBox="0 0 164.90979 298.28293"
   version="1.1"
   id="svg36275"
   inkscape:version="0.92.3 (2405546, 2018-03-11)"
   sodipodi:docname="axe.svg">
  <defs
     id="defs36269" />
  <sodipodi:namedview
     id="base"
     pagecolor="#ffffff"
     bordercolor="#666666"
     borderopacity="1.0"
     inkscape:pageopacity="0.0"
     inkscape:pageshadow="2"
     inkscape:zoom="0.24748737"
     inkscape:cx="-318.35646"
     inkscape:cy="1422.0219"
     inkscape:document-units="mm"
     inkscape:current-layer="layer1"
     showgrid="false"
     fit-margin-top="0"
     fit-margin-left="0"
     fit-margin-right="0"
     fit-margin-bottom="0"
     inkscape:window-width="1920"
     inkscape:window-height="1001"
     inkscape:window-x="-9"
     inkscape:window-y="-9"
     inkscape:window-maximized="1" />
  <metadata
     id="metadata36272">
    <rdf:RDF>
      <cc:Work
         rdf:about="">
        <dc:format>image/svg+xml</dc:format>
        <dc:type
           rdf:resource="http://purl.org/dc/dcmitype/StillImage" />
        <dc:title></dc:title>
      </cc:Work>
    </rdf:RDF>
  </metadata>
  <g
     inkscape:label="Layer 1"
     inkscape:groupmode="layer"
     id="layer1"
     transform="translate(-35.238848,21.237927)">
    <g
       id="g36840"
       transform="rotate(-90,118.27666,127.70731)">
      <path
         sodipodi:nodetypes="sssssssssssaccssssssssssss"
         inkscape:connector-curvature="0"
         id="path36831"
         d="m 264.86411,196.10575 c 1.03536,1.07626 1.45625,2.78772 1.33633,4.27631 -0.11997,1.48926 -0.95584,2.94483 -2.00452,4.00905 -1.90181,1.92998 -4.61463,2.98469 -7.21627,3.74177 -1.45986,0.42482 -3.02743,0.51469 -4.54358,0.4009 -1.50832,-0.11321 -3.15963,-0.21787 -4.40995,-1.06907 -2.43137,-1.65523 -3.15289,-4.99259 -5.07812,-7.21628 -1.44378,-1.6676 -3.00321,-3.27954 -4.81085,-4.54358 -3.8365,-2.68278 -8.20491,-4.56774 -12.56167,-6.28084 -10.88785,-4.28116 -22.48814,-6.46755 -33.67596,-9.88897 C 174.3323,174.16269 156.73077,168.86866 139.38106,162.8307 115.49496,154.51798 92.059373,144.96311 68.420998,135.97011 54.781571,130.78111 27.52876,120.33484 27.52876,120.33484 l 9.087165,-21.515197 c 0,0 8.633992,1.605037 12.160763,4.009047 2.247949,1.53231 3.215814,4.43219 5.211755,6.28083 4.524735,4.19081 9.855629,7.44655 15.100728,10.69078 7.220226,4.4659 14.749963,8.45285 22.450642,12.02713 11.734707,5.44667 23.942897,9.82382 36.081387,14.29892 16.16453,5.95937 32.49448,11.47691 48.91032,16.70435 10.18004,3.24172 20.49115,6.05647 30.736,9.08716 5.56838,1.64727 11.2364,2.98951 16.70434,4.94449 4.64299,1.66003 9.20179,3.57896 13.63075,5.74629 5.64284,2.76135 10.82109,6.40523 16.43707,9.2208 1.56875,0.78649 3.18112,1.48737 4.81085,2.13815 1.97576,0.78896 4.53865,0.60497 6.01358,2.13816 z"
         style="fill:#ff9955;fill-opacity:1;stroke:#000000;stroke-width:2;stroke-linecap:butt;stroke-linejoin:miter;stroke-miterlimit:4;stroke-dasharray:none;stroke-opacity:1" />
      <path
         sodipodi:nodetypes="cscsaccc"
         inkscape:connector-curvature="0"
         id="path36835"
         d="m -18.842501,128.35293 c 0,0 -3.80552,5.95952 -5.87993,8.81989 -1.564303,2.15699 -4.944486,6.28084 -4.944486,6.28084 0,0 8.117324,6.94396 12.828937,9.35443 6.257808,3.20151 13.0710282,5.6703 20.0452144,6.5481 4.7391048,0.59648 14.2989196,-0.93544 14.2989196,-0.93544 L -3.6081385,136.37101 Z"
         style="fill:#999999;stroke:#000000;stroke-width:2;stroke-linecap:butt;stroke-linejoin:miter;stroke-miterlimit:4;stroke-dasharray:none;stroke-opacity:1" />
      <path
         sodipodi:nodetypes="csscssscssssscc"
         inkscape:connector-curvature="0"
         id="path36833"
         d="m 17.506154,158.42075 c 0,0 2.167234,-11.48507 3.741773,-17.10525 2.477761,-8.84416 5.643162,-17.49141 8.95353,-26.05878 2.639376,-6.83082 8.68626,-20.178849 8.68626,-20.178849 0,0 -9.642114,-3.863358 -12.962573,-7.617182 -0.964949,-1.090888 -1.767552,-2.552937 -1.737252,-4.009043 0.189417,-9.102754 7.698743,-16.507949 11.893493,-24.588795 2.112956,-4.070439 6.68174,-12.02713 6.68174,-12.02713 0,0 -11.927325,5.329005 -17.105251,9.220798 -5.438879,4.087928 -10.062199,9.242398 -14.298919,14.56619 C 7.0807611,75.998616 3.5711062,81.971276 0.26726951,87.995227 -3.0869437,94.11103 -5.7978664,100.56315 -8.5526247,106.97136 c -1.8163603,4.22527 -3.0277043,8.71216 -5.0781213,12.82894 -1.488387,2.98835 -5.211755,8.55263 -5.211755,8.55263 z"
         style="fill:#ff0000;fill-opacity:1;stroke:#000000;stroke-width:2;stroke-linecap:butt;stroke-linejoin:miter;stroke-miterlimit:4;stroke-dasharray:none;stroke-opacity:1" />
    </g>
  </g>
</svg>
